<svg xmlns="http://www.w3.org/2000/svg" version="1.1" xmlns:xlink="http://www.w3.org/1999/xlink" xmlns:svgjs="http://svgjs.dev/svgjs" viewBox="0 0 800 800" opacity="0.36"><g stroke-width="5" stroke="hsl(265, 55%, 20%)" fill="none"><path d="M1472.9025333746936 -1009.7504191517038C1702.402088143428 -526.1257256810973 1548.1657170074845 957.7477321634542 1152.2956848329495 1547.2675706955974C756.4256526584147 2136.787409227741 -31.508369504659868 2055.9707452415423 -427.27362106306987 1819.9448058025841C-823.03887262148 1583.918866363626 -701.4620446909885 872.8516734267705 -747.3775226474215 414.3430613886021C-793.2930006038545 -44.16555064956606 -813.933612043623 -133.29777794897018 -647.6679152539471 -380.89653198062024C-481.4022184642712 -628.4952860122701 -391.0876881879442 -643.1197314693414 50.69782194302206 -774.1309579633164C492.4833320739883 -905.1421844572915 1243.40297860596 -1493.37511262231 1472.9025333746936 -1009.7504191517038C1702.402088143428 -526.1257256810973 1548.1657170074845 957.7477321634542 1152.2956848329495 1547.2675706955974 "></path><path d="M1454.717714673097 -985.8563561475105C1680.327446479649 -510.4286913797955 1528.7052511256707 948.2943688741707 1139.544880513416 1527.8223457362774C750.3845099011614 2107.3503225983845 -24.194698326945854 2027.903432578054 -413.25206426572186 1795.8779327906032C-802.3094302044979 1563.8524330031528 -682.793226476218 864.8372263872607 -727.9304759927115 414.09994675651933C-773.0677255092049 -36.637332874222466 -793.358496077113 -124.25884445668748 -629.9108619448892 -367.66100943695346C-466.4632278126653 -611.0631744172197 -377.6794522867847 -625.4397479173916 56.61816784196185 -754.2304451487569C490.91578797070815 -883.021142380122 1229.1079828665447 -1461.2840209152253 1454.717714673097 -985.8563561475105C1680.327446479649 -510.4286913797955 1528.7052511256707 948.2943688741707 1139.544880513416 1527.8223457362774 "></path><path d="M1436.5329264890784 -961.9622931433171C1658.2528353334483 -494.73165707849387 1509.244815761435 938.8410055848867 1126.7941067114607 1508.3771207769573C744.3433976614863 2077.913235969028 -16.88099663165349 1999.8361199145647 -399.2304769507955 1771.8110597786222C-781.5799572699375 1543.7859996426796 -664.1243777438694 856.8227793477508 -708.4833988204234 413.8568321244363C-752.8424198969772 -29.109115098878874 -772.7833495930249 -115.21991096440479 -612.1537781182532 -354.42548689328714C-451.52420664348153 -593.6310628221693 -364.2711858680469 -607.7597643654417 62.53854425847976 -734.3299323341971C489.34827438500633 -860.9001003029528 1214.8130176447075 -1429.1929292081404 1436.5329264890784 -961.9622931433171C1658.2528353334483 -494.73165707849387 1509.244815761435 938.8410055848867 1126.7941067114607 1508.3771207769573 "></path><path d="M1418.3481383050594 -938.0681996215457C1636.1782241872475 -479.034592259614 1489.7843803971991 929.3876728131809 1114.043332909505 1488.931926335215C738.3022854218111 2048.4761798572495 -9.567294936361577 1971.768837768654 -385.20888963586935 1747.7442172842193C-760.8504843353771 1523.7195967997845 -645.4555290115209 848.80836282582 -689.0363216481353 413.6137480099312C-732.6171142847495 -21.580866805957157 -752.2082031089367 -106.1809469545442 -594.3966942916172 -341.18993383204247C-436.58518547429765 -576.1989207095407 -350.8629194493093 -590.0797502959136 68.45892067499767 -714.4293890020595C487.7807607993045 -838.7790277082051 1200.5180524228708 -1397.1018069834772 1418.3481383050594 -938.0681996215457C1636.1782241872475 -479.034592259614 1489.7843803971991 929.3876728131809 1114.043332909505 1488.931926335215 "></path><path d="M1400.1633501210404 -914.1740755821961C1614.1036130410466 -463.3374969231561 1470.3239450329638 919.9343705590527 1101.29255910755 1469.4867624110511C732.2611731821357 2019.0391542630487 -2.253593241069211 1943.7015861403215 -371.1873023209431 1723.6774053073946C-740.1210114008169 1503.6532244744676 -626.7866802791723 840.7939768214665 -669.5892444758472 413.37069441300423C-712.3918086725218 -14.052587995457543 -731.6330566248486 -97.14195242710548 -576.6396104649812 -327.9543502532197C-421.64616430511376 -558.7667480793342 -337.45465303057154 -572.3997057088076 74.37929709151558 -694.5288151523434C486.2132472136027 -816.6579245958795 1186.223087201034 -1365.010654241236 1400.1633501210404 -914.1740755821961C1614.1036130410466 -463.3374969231561 1470.3239450329638 919.9343705590527 1101.29255910755 1469.4867624110511 "></path><path d="M1381.9785619370214 -890.2801041307371C1592.0290018948458 -447.6405541745887 1450.863509668728 910.4809157170348 1088.5417853055942 1450.0414458989962C726.2200609424606 1989.6019760809581 5.060108454222927 1915.6341819240984 -357.16571500601685 1699.6104407426797C-719.3915384662566 1483.58669956126 -608.1178315468237 832.7794382292223 -650.142167303559 413.1274882281871C-692.1665030602942 -6.524461772848326 -711.0579101407604 -88.10311048755693 -558.8825266383451 -314.7189192622877C-406.70714313592987 -541.3347280370182 -324.0463866118339 -554.7198137095919 80.29967350803327 -674.6283938905183C484.64573362790065 -794.5369740714445 1171.9281219791965 -1332.9196540868854 1381.9785619370214 -890.2801041307371C1592.0290018948458 -447.6405541745887 1450.863509668728 910.4809157170348 1088.5417853055942 1450.0414458989962 "></path><path d="M1363.7937737530024 -866.3860411265438C1569.954390748645 -431.9435198732871 1431.4030743044923 901.0275524277508 1075.7910115036389 1430.5962209396762C720.1789487027854 1960.164889451601 12.373810149515066 1887.56686926061 -343.1441276910906 1675.5435677306982C-698.6620655316963 1463.5202662007864 -589.4489828144751 824.7649911897124 -630.6950901312708 412.88437359610407C-671.9411974480665 1.0037560024952654 -690.4827636566722 -79.06417699527447 -541.1254428117091 -301.48339671862095C-391.768121966746 -523.9026164419677 -310.63812019309626 -537.0398301576421 86.2200499245514 -654.7278810759586C483.07822004219884 -772.4159319942751 1157.6331567573598 -1300.8285623798004 1363.7937737530024 -866.3860411265438C1569.954390748645 -431.9435198732871 1431.4030743044923 901.0275524277508 1075.7910115036389 1430.5962209396762 "></path><path d="M1345.6089855689834 -842.4917950168817C1547.8797796024442 -416.24630246651657 1411.9426389402565 891.5743722439356 1063.0402377016835 1411.1511790858249C714.1378364631103 1930.7279859277137 19.687511844807204 1859.49973970259 -329.12254037616435 1651.476877824186C-677.9325925971359 1443.4540159457824 -570.7801340821266 816.7507272556722 -611.2480129589827 412.6414420694898C-651.7158918358389 8.532156883307607 -669.9076171725841 -70.02506039752325 -523.3683589850731 -288.2476910694859C-376.8291007975621 -506.4703217414485 -297.2298537743586 -519.3596635002234 92.14042634106909 -634.8271851559301C481.510706456497 -750.2947068116368 1143.3381915355226 -1268.7372875672468 1345.6089855689834 -842.4917950168817C1547.8797796024442 -416.24630246651657 1411.9426389402565 891.5743722439356 1063.0402377016835 1411.1511790858249 "></path><path d="M1327.4241363498081 -818.5979151181571C1525.805107421087 -400.5494512706837 1392.4821425408645 882.1208258491829 1050.2894028645717 1391.7057710210356C708.0966631882789 1901.2907161928883 27.001152504943093 1831.432243933632 -315.10101409639435 1627.4098217067358C-657.2031806977319 1423.38739947984 -552.1113463849342 808.7360971106937 -591.8009968218508 412.39814433193806C-631.4906472587675 16.06019155318245 -649.3325317236522 -60.9863100107093 -505.61133619359333 -275.0123516312883C-361.89014066353445 -489.03839325186686 -283.8216483907772 -501.6798630537422 98.06074172243098 -614.9268554468392C479.94313183563895 -728.1738478399363 1129.04316527853 -1236.6463789656304 1327.4241363498081 -818.5979151181571C1525.805107421087 -400.5494512706837 1392.4821425408645 882.1208258491829 1050.2894028645717 1391.7057710210356 "></path><path d="M1309.2393481657891 -794.7038521139636C1503.7304962748863 -384.8524169693819 1373.0217071766292 872.6674625598989 1037.538629062616 1372.2605460617156C702.0555509486035 1871.8536295635322 34.314854200235345 1803.3649312701436 -301.0794267814681 1603.3429486947553C-636.4737077631717 1403.3209661193669 -533.4424976525856 800.7216500711843 -572.3539196495627 412.1550296998548C-611.2653416465398 23.588409328525813 -628.757385239564 -51.94737651842661 -487.8542523669573 -261.77682908762154C-346.95111949435056 -471.6062816568166 -270.4133819720396 -483.9998795017923 103.98111813894866 -595.0263426322796C478.3756182499369 -706.0528057627669 1114.7482000566924 -1204.5552872585456 1309.2393481657891 -794.7038521139636C1503.7304962748863 -384.8524169693819 1373.0217071766292 872.6674625598989 1037.538629062616 1372.2605460617156 "></path><path d="M1291.0545599817706 -770.8097280746141C1481.6558851286854 -369.15532163292403 1353.561271812393 863.2141603057717 1024.7878552606608 1352.8153821375513C696.0144387089283 1842.4166039693314 41.628555895527484 1775.2976796418106 -287.05783946654196 1579.2761367179305C-615.7442348286113 1383.2545937940495 -514.7736489202371 792.7072640668302 -552.9068424772745 411.91197610292807C-591.0400360343122 31.116688139025655 -608.182238755476 -42.90838199098789 -470.09716854032126 -248.54124550879897C-332.0120983251667 -454.1741090266099 -257.00511555330195 -466.3198349146862 109.9014945554668 -575.1257687825637C476.8081046642351 -683.9317026504413 1100.4532348348557 -1172.4641345163043 1291.0545599817706 -770.8097280746141C1481.6558851286854 -369.15532163292403 1353.561271812393 863.2141603057717 1024.7878552606608 1352.8153821375513 "></path><path d="M1272.869771797752 -746.9155124825302C1459.5812739824846 -353.45813474373165 1334.1008364481577 853.7609496043779 1012.0370814587052 1333.3703097661219C689.9733264692532 1812.9796699278659 48.94225759081962 1747.2305195662125 -273.0362521516156 1555.2094162938397C-595.0147618940509 1363.1883130214674 -496.10480018788843 784.692969615212 -533.4597653049864 411.6690140587357C-570.8147304220845 38.64505850225987 -587.6070922713877 -33.8692959108148 -452.34008471368526 -235.30557037724168C-317.0730771559828 -436.7418448436689 -243.5968491345642 -448.63969877484556 115.82187097198448 -555.2251033801134C475.24059107853327 -661.8105079853813 1086.1582696130185 -1140.3728902213288 1272.869771797752 -746.9155124825302C1459.5812739824846 -353.45813474373165 1334.1008364481577 853.7609496043779 1012.0370814587052 1333.3703097661219 "></path><path d="M1254.6849836137326 -723.021479995915C1437.5066628362838 -337.76113096000813 1314.6404010839215 844.3075557975162 999.2863076567501 1313.9250542892232C683.932214229578 1783.5425527809307 56.255959286111874 1719.163176385145 -259.01466483668946 1531.1425127642806C-574.2852889594907 1343.1218491434156 -477.43595145553985 776.6784920581238 -514.0126881326983 411.42586890907455C-550.5894248098568 46.17324576002534 -567.0319457872995 -24.83039293611023 -434.58300088704925 -222.07007835115337C-302.1340559867989 -419.3097637661966 -230.18858271582644 -430.95974574047386 121.74224738850239 -535.3246210831319C473.67307749283145 -639.6894964257899 1071.8633043911818 -1108.2818290318219 1254.6849836137326 -723.021479995915C1437.5066628362838 -337.76113096000813 1314.6404010839215 844.3075557975162 999.2863076567501 1313.9250542892232 "></path><path d="M1236.500195429714 -699.1274169917216C1415.4320516900825 -322.0640966587064 1295.1799657196862 834.8541925082325 986.5355338547945 1294.4798293299032C677.8911019899028 1754.105466151574 63.56966098140401 1691.0958637216572 -244.9930775217631 1507.0756397523C-553.5558160249304 1323.0554157829424 -458.7671027231913 768.6640450186142 -494.5656109604102 411.18275427699155C-530.3641191976292 53.70146353536893 -546.4567993032115 -15.791459443827534 -416.8259170604132 -208.83455580748694C-287.195034817615 -401.8776521711462 -216.7803162970888 -413.2797621885238 127.6626238050203 -515.4241082685721C472.10556390712964 -617.5684543486205 1057.5683391693447 -1076.1907373247368 1236.500195429714 -699.1274169917216C1415.4320516900825 -322.0640966587064 1295.1799657196862 834.8541925082325 986.5355338547945 1294.4798293299032 "></path><path d="M1218.3154072456946 -675.2333539875283C1393.3574405438821 -306.36706235740473 1275.7195303554504 825.4008292189483 973.7847600528391 1275.034604370583C671.8499897502277 1724.668379522218 70.88336267669615 1663.028551058168 -230.97149020683696 1483.0087667403186C-532.8263430903701 1302.9889824224692 -440.0982539908427 760.6495979791046 -475.1185337881221 410.93963964490854C-510.1388135854014 61.229681310712294 -525.8816528191232 -6.752525951545067 -399.0688332337772 -195.5990332638204C-272.2560136484311 -384.4455405760958 -203.37204987835116 -395.599778636574 133.58300022153833 -495.5235954540126C470.5380503214278 -595.4474122714512 1043.2733739475077 -1044.099645617652 1218.3154072456946 -675.2333539875283C1393.3574405438821 -306.36706235740473 1275.7195303554504 825.4008292189483 973.7847600528391 1275.034604370583 "></path><path d="M1200.130619061676 -651.339321500913C1371.2828293976809 -290.6700585736811 1256.2590949912146 815.9474354120864 961.0339862508836 1255.589348893685C665.8088775105525 1695.2312623752832 78.1970643719884 1634.9612078771015 -216.9499028919107 1458.9418632107595C-512.0968701558097 1282.922518544418 -421.4294052584941 752.635120422017 -455.6714566158339 410.6964944952474C-489.91350797317375 68.75786856847799 -505.3065063350351 2.28637702315973 -381.3117494071412 -182.36354123773197C-257.31699247924723 -367.01345949862355 -189.96378345961352 -377.9198256022022 139.50337663805612 -475.62311315703096C468.970536735726 -573.3264007118598 1028.9784087256708 -1012.008584428145 1200.130619061676 -651.339321500913C1371.2828293976809 -290.6700585736811 1256.2590949912146 815.9474354120864 961.0339862508836 1255.589348893685 "></path><path d="M1181.945830877657 -627.4451974615636C1349.2082182514805 -274.9729632372232 1236.7986596269789 806.4941331579585 948.2832124489282 1236.1441849695207C659.7677652708774 1665.7942367810829 85.51076606728043 1606.8939562487685 -202.92831557698446 1434.8750512339348C-491.36739722124946 1262.8561462191005 -402.7605565261455 744.6207344176637 -436.2243794435458 410.4534408983204C-469.6882023609461 76.2861473789776 -484.73135985094694 11.325371550598447 -363.5546655805052 -169.12795765890928C-242.37797131006334 -349.5812868684169 -176.55551704087588 -360.239781015096 145.42375305457404 -455.7225393073152C467.4030231500242 -551.2052975995342 1014.6834435038338 -979.9174316859038 1181.945830877657 -627.4451974615636C1349.2082182514805 -274.9729632372232 1236.7986596269789 806.4941331579585 948.2832124489282 1236.1441849695207 "></path><path d="M1163.761042693638 -603.5511344573702C1327.1336071052792 -259.27592893592157 1217.338224262743 797.0407698686745 935.5324386469727 1216.6989600101997C653.7266530312022 1636.3571501517258 92.82446776257268 1578.8266435852793 -188.90672826205832 1410.8081782219533C-470.63792428668916 1242.7897128586274 -384.0917077937969 736.6062873781536 -416.77730227125767 410.2103262662374C-449.46289674871844 83.81436515432097 -464.15621336685876 20.364305042880915 -345.79758175386917 -155.89243511524285C-227.43895014087946 -332.1491752733666 -163.14725062213824 -342.5597974631462 151.34412947109206 -435.8220264927555C465.83550956432214 -529.0842555223649 1000.3884782819969 -947.8263399788189 1163.761042693638 -603.5511344573702C1327.1336071052792 -259.27592893592157 1217.338224262743 797.0407698686745 935.5324386469727 1216.6989600101997 "></path><path d="M1145.576254509619 -579.6570714531769C1305.0589959590789 -243.5788946346197 1197.8777888985076 787.5874065793907 922.7816648450173 1197.25373505088C647.6855407915268 1606.9200635223692 100.13816945786482 1550.759330921791 -174.88514094713196 1386.7413052099728C-449.90845135212885 1222.7232794981542 -365.4228590614483 728.5918403386445 -397.33022509896955 409.9672116341544C-429.2375911364908 91.34258292966456 -443.58106688277064 29.403238535163382 -328.0404979272331 -142.6569125715763C-212.49992897169557 -314.7170636783161 -149.7389842034006 -324.87981391119627 157.26450588760986 -415.9215136781959C464.2679959786203 -506.9632134451954 986.0935130601597 -915.7352482717339 1145.576254509619 -579.6570714531769C1305.0589959590789 -243.5788946346197 1197.8777888985076 787.5874065793907 922.7816648450173 1197.25373505088 "></path><path d="M1127.3914663256003 -555.7629779314054C1282.9843848128776 -227.88182981574005 1178.4173535342718 778.1340738076847 910.0308910430617 1177.8085406091377C641.6444285518514 1577.4830074105907 107.45187115315707 1522.6920487758798 -160.86355363220582 1362.6744627155695C-429.17897841756854 1202.656876655259 -346.75401032909974 720.5774238167126 -377.88314792668143 409.7241275196493C-409.01228552426306 98.87083122258628 -423.00592039868246 38.4422025450242 -310.2834141005971 -129.42135951033174C-197.56090780251168 -297.2849215656877 -136.33071778466285 -307.1997998416682 163.18488230412777 -396.020970346058C462.7004823929185 -484.8421408504479 971.798547838323 -883.6441260470708 1127.3914663256003 -555.7629779314054C1282.9843848128776 -227.88182981574005 1178.4173535342718 778.1340738076847 910.0308910430617 1177.8085406091377 "></path><path d="M1109.2066781415815 -531.8689454447901C1260.9097736666768 -212.18482603201642 1158.956918170036 768.6806800008228 897.2801172411064 1158.36328513224C635.6033163121765 1548.0458902636565 114.76557284844921 1494.6247055948133 -146.84196631727957 1338.6075591860108C-408.44950548300824 1182.5904127772078 -328.08516159675116 712.5629462596253 -358.4360707543933 409.4809823699884C-388.7869799120354 106.39901848035151 -402.43077391459434 47.48110551972877 -292.5263302739611 -116.18586748424332C-182.6218866333278 -279.8528404882154 -122.92245136592521 -289.5198468072964 169.10525872064568 -376.1204880490766C461.13296880721646 -462.72112929085665 957.5035826164858 -851.5530648575639 1109.2066781415815 -531.8689454447901C1260.9097736666768 -212.18482603201642 1158.956918170036 768.6806800008228 897.2801172411064 1158.36328513224 "></path><path d="M1091.0219509927188 -507.9749434757531C1238.8352235556322 -196.4878527658709 1139.4965438409567 759.2272556763824 884.5294044743071 1138.9179991377628C629.5622651076574 1518.6087425991432 122.0793355788976 1466.5573318961683 -132.82031796719707 1314.540625138873C-387.7199715132917 1162.523918381578 -309.41625182924633 704.548438184959 -338.9889325469489 409.23780670274914C-368.5616132646515 113.92717522053886 -381.8555663953499 56.51997797685499 -274.7691854121688 -102.95040597573313C-167.68280442898765 -262.42078992832126 -109.51412391203121 -271.83992429050284 175.02569617231973 -356.2200362696732C459.5655162566709 -440.6001482488434 943.2086784298053 -819.4620341856352 1091.0219509927188 -507.9749434757531C1238.8352235556322 -196.4878527658709 1139.4965438409567 759.2272556763824 884.5294044743071 1138.9179991377628 "></path><path d="M1072.8371628086998 -484.08075840124724C1216.7606124094314 -180.79069639425666 1120.036108476721 749.7740144574113 871.7786306723517 1119.4728962487552C623.5211528679822 1489.1717780400995 129.39303727418974 1438.490141302992 -118.79873065227082 1290.4738741972046C-366.9904985787314 1142.4576070914172 -290.74740309689776 696.5341132157619 -319.54185537466077 408.99481414097863C-348.33630765242384 121.45551506619495 -361.2804199112618 65.55903353945018 -257.0121015855328 -89.71476136175409C-152.74378325980376 -244.98855626295835 -96.10585749329357 -254.1598186682404 180.94607258883775 -336.31940138480104C457.9980026709691 -418.47898410136156 928.9137132079682 -787.3708204082377 1072.8371628086998 -484.08075840124724C1216.7606124094314 -180.79069639425666 1120.036108476721 749.7740144574113 871.7786306723517 1119.4728962487552 "></path><path d="M1054.6523135895245 -460.18675643221013C1194.6859402280743 -165.09372312811126 1100.5756120773292 740.3205901329711 859.0277958352399 1100.0276102542787C617.4799795931508 1459.7346303755867 136.70667793432563 1410.422767604347 -104.77720437250082 1266.4069401500674C-346.2610866793273 1122.3911126957878 -272.07861539970537 688.5196051410962 -300.0948392375289 408.7516384737394C-328.1110630753524 128.98367180638252 -340.70533446232986 74.59790599657651 -239.25507879405302 -76.4792998532439C-137.80482312577612 -227.5565057030642 -82.69765210971218 -236.47989615144672 186.8663879701994 -316.41894960539753C456.430428050111 -396.35800305934845 914.618686950975 -755.279789736309 1054.6523135895245 -460.18675643221013C1194.6859402280743 -165.09372312811126 1100.5756120773292 740.3205901329711 859.0277958352399 1100.0276102542787 "></path><path d="M1036.4675254055055 -436.2926934280168C1172.6113290818735 -149.39668882680962 1081.1151767130934 730.8672268436871 846.2770220332845 1080.5823852949588C611.4388673534756 1430.29754374623 144.02037962961776 1382.3554549408582 -90.75561705757457 1242.3400671380864C-325.531613744767 1102.3246793353146 -253.4097666673568 680.5051581015866 -280.6477620652408 408.50852384165637C-307.8857574631247 136.51188958172588 -320.1301879782417 83.6368394888591 -221.49799496741696 -63.243777309577354C-122.86580195659235 -210.1243941080138 -69.28938569097454 -218.7999125994968 192.78676438671732 -296.5184367908379C454.8629144644092 -374.23696098217897 900.323721729138 -723.188698029224 1036.4675254055055 -436.2926934280168C1172.6113290818735 -149.39668882680962 1081.1151767130934 730.8672268436871 846.2770220332845 1080.5823852949588 "></path><path d="M1018.2827372214867 -412.3986914589797C1150.5367179356726 -133.69971556066412 1061.6547413488577 721.4138025192469 833.526248231329 1061.1370993004823C605.3977551138005 1400.8603960817172 151.33408132491002 1354.2880812422131 -76.73402974264832 1218.2731330909492C-304.8021408102067 1082.2581849396852 -234.7409179350082 672.4906500269208 -261.20068489295267 408.2653481744169C-287.66045185089706 144.04004632191322 -299.55504149415356 92.67571194598554 -203.74091114078095 -50.008315801067056C-107.92678078740835 -192.69234354811965 -55.8811192722369 -201.11999008270323 198.70714080323523 -276.6179850114345C453.29540087870737 -352.11597994016586 886.0287565073011 -691.0976673572953 1018.2827372214867 -412.3986914589797C1150.5367179356726 -133.69971556066412 1061.6547413488577 721.4138025192469 833.526248231329 1061.1370993004823 "></path><path d="M1000.0980100726242 -388.50438431416137C1128.462167824628 -118.00243711873736 1042.1943670197782 711.9606833705882 820.7755354645299 1041.6921184817868C599.3567039092814 1371.4235535929856 158.6478440553584 1326.2210127193493 -62.71238139256582 1194.206504219593C-284.07260684049015 1062.1919957198368 -216.07200816750338 664.4764471280362 -241.75354668550824 408.0224776829591C-267.43508520351315 151.5685082378817 -278.9798339749091 101.71488957889312 -185.9837662789887 -36.77254911677551C-92.98769858306821 -175.25998781244425 -42.47279181834301 -183.43976239012818 204.6275782549094 -256.71722805624984C451.7279483281616 -329.9946937223715 871.7338523206204 -659.0063315095854 1000.0980100726242 -388.50438431416137C1128.462167824628 -118.00243711873736 1042.1943670197782 711.9606833705882 820.7755354645299 1041.6921184817868 "></path><path d="M981.9132218886052 -364.61035182754614C1106.387556678427 -102.30543333501384 1022.7339316555424 702.5072895637261 808.0247616625743 1022.2468630048884C593.3155916696064 1341.986436446051 165.96154575065066 1298.1536695382824 -48.690794077639566 1170.1396006900338C-263.34313390592985 1042.1255318417855 -197.4031594351548 656.4619695709484 -222.30646951322012 407.77933253329775C-247.20977959128544 159.09669549564717 -258.404687490821 110.75379255359758 -168.2266824523527 -23.5370570906872C-78.04867741388443 -157.82790673497198 -29.06452539960526 -165.7598093557565 210.5479546714272 -236.81674575926831C450.16043474245976 -307.87368216278014 857.4388870987832 -626.9152703200784 981.9132218886052 -364.61035182754614C1106.387556678427 -102.30543333501384 1022.7339316555424 702.5072895637261 808.0247616625743 1022.2468630048884 "></path><path d="M963.72837266943 -340.71631934093097C1084.31288449707 -86.60842955129021 1003.2734352561506 693.053895756864 795.2739268254627 1002.80160752799C587.2744183947748 1312.5493192991162 173.27518641078655 1270.0863263572155 -34.66926779786968 1146.0726971604747C-242.6137220065258 1022.0590679637339 -178.73437173796248 648.4474920138607 -202.85945337608825 407.5361873836366C-226.98453501421403 166.62488275341263 -237.82960204188907 119.79269552830203 -150.46965966087294 -10.30156506459889C-63.109717279856795 -140.3958256574997 -15.65632001602387 -148.07985632138468 216.46827005278885 -216.9162634622868C448.59286012160146 -285.7526706031889 843.14386084179 -594.8242091305717 963.72837266943 -340.71631934093097C1084.31288449707 -86.60842955129021 1003.2734352561506 693.053895756864 795.2739268254627 1002.80160752799 "></path><path d="M945.543584485411 -316.8222563367376C1062.2382733508691 -70.91139524998857 983.8129998919148 683.6005324675803 782.5231530235073 983.3563825686701C581.2333061550999 1283.1122326697596 180.58888810607868 1242.0190136937267 -20.647680482943315 1122.0058241484937C-221.88424907196548 1001.9926346032607 -160.06552300561384 640.4330449743511 -183.41237620380014 407.2930727515536C-206.75922940198637 174.15310052875623 -217.25445555780095 128.83162902058461 -132.71257583423687 2.933957479067658C-48.17069611067291 -122.9637140624493 -2.24805359728623 -130.39987276943475 222.38864646930665 -197.01575064772715C447.02534653589976 -263.63162852601954 828.848895619953 -562.7331174234866 945.543584485411 -316.8222563367376C1062.2382733508691 -70.91139524998857 983.8129998919148 683.6005324675803 782.5231530235073 983.3563825686701 "></path><path d="M927.3588573365485 -292.92813229738806C1040.1637232398245 -55.21429991353057 964.3526255628353 674.1472302134525 769.772440256708 963.9112186445059C575.1922549505807 1253.6752070755595 187.90265083652707 1213.9517620653942 -6.626032132860928 1097.9390121716688C-201.15471510224893 981.9262622779436 -141.396613238109 632.4186589699975 -163.96523799635577 407.05001915462685C-186.53386275460247 181.68137933925595 -196.67924803855652 137.87062354802345 -114.95543097244462 16.169541057890456C-33.231613906332655 -105.53154143224265 11.16027385660766 -112.71982818232868 228.30908392098092 -177.11517679801125C445.4578939853541 -241.5105254136938 814.5539914332724 -530.6419646812454 927.3588573365485 -292.92813229738806C1040.1637232398245 -55.21429991353057 964.3526255628353 674.1472302134525 769.772440256708 963.9112186445059 "></path><path d="M909.1740691525297 -269.0340692931947C1018.0891120936237 -39.51726561222881 944.8921901985996 664.6938669241686 757.0216664547524 944.4659936851856C569.1511427109056 1224.2381204462029 195.2163525318192 1185.8844494019052 7.395555182065323 1073.8721391596878C-180.42524216768862 961.8598289174704 -122.72776450576043 624.4042119304881 -144.5181608240676 406.80690452254385C-166.3085571423748 189.20959711459955 -176.10410155446834 146.90955704030603 -97.19834714580861 29.40506360155689C-18.29259273714888 -88.09942983719225 24.568540275345413 -95.03984463037864 234.22946033749884 -157.2146639834516C443.89038039965226 -219.38948333652445 800.2590262114354 -498.5508729741605 909.1740691525297 -269.0340692931947C1018.0891120936237 -39.51726561222881 944.8921901985996 664.6938669241686 757.0216664547524 944.4659936851856 "></path><path d="M890.9892809685107 -245.14003680657947C996.0145009474229 -23.820261828505295 925.431754834364 655.2404731173065 744.2708926527971 925.0207382082872C563.1100304712304 1194.8010032992681 202.53005422711146 1157.8171062208382 21.417142496991573 1049.805235630129C-159.69576923312832 941.7933650394191 -104.05891577341185 616.3897343734002 -125.07108365177947 406.5637593728825C-146.0832515301471 196.7377843723649 -155.52895507038022 155.9484600150106 -79.44126331917255 42.6405556276452C-3.3535715679649343 -70.66734875971997 37.97680669408305 -77.35989159600695 240.14983675401663 -137.31418168647008C442.3228668139503 -197.2684717769332 785.9640609895982 -466.45981178465365 890.9892809685107 -245.14003680657947C996.0145009474229 -23.820261828505295 925.431754834364 655.2404731173065 744.2708926527971 925.0207382082872 "></path><path d="M872.8044317493354 -221.24594328480805C973.9398287660658 -8.123197009625528 905.971258434972 645.7871403456006 731.5200578156855 905.5755437665453C557.0688571963988 1165.3639471874897 209.84369488724735 1129.7498240749278 35.438668776761574 1025.7383931357258C-138.96635733372426 921.726962196524 -85.39012807621953 608.3753178514689 -105.6240675146476 406.32067525837783C-125.85800695307569 204.26603266528662 -134.9538696214483 164.9874240248712 -61.68424052769279 55.87610868888987C11.585388566062704 -53.235206647091445 51.38501207766444 -59.67987752647889 246.0701521353783 -117.4136383543323C440.75529219309226 -175.1473991821856 771.669034732605 -434.36868955999057 872.8044317493354 -221.24594328480805C973.9398287660658 -8.123197009625528 905.971258434972 645.7871403456006 731.5200578156855 905.5755437665453 "></path><path d="M854.6196435653164 -197.35188028061464C951.865217619865 7.573837291676227 886.5108230707365 636.3337770563166 718.7692840137299 886.130318807225C551.0277449567236 1135.9268605581333 217.1573965825396 1101.682511411439 49.460256091687825 1001.6715201237448C-118.23688439916396 901.6605288360506 -66.72127934387095 600.3608708119593 -86.17699034235949 406.0775606262946C-105.63270134084803 211.7942504406301 -114.37872313736017 174.02635751715388 -43.92715670105679 69.11163123255642C26.524409735246593 -35.803095052041044 64.79327849640208 -41.99989397452896 251.9905285518962 -97.51312553977255C439.1877786073903 -153.02635710501625 757.3740695107681 -402.27759785290556 854.6196435653164 -197.35188028061464C951.865217619865 7.573837291676227 886.5108230707365 636.3337770563166 718.7692840137299 886.130318807225 "></path><path d="M836.4349164164541 -173.45781727642134C929.7906675088204 23.270871592977983 867.050448741657 626.8804137670327 706.0185712469306 866.6850938479047C544.9866937522047 1106.4897739287767 224.471159312988 1073.61519874795 63.481904441770325 977.6046471117636C-97.5073504294474 881.5940954755774 -48.05236957636612 592.3464237724497 -66.72985213491512 405.8344459942116C-85.40733469346412 219.3224682159737 -93.80351561811574 183.06529100943635 -26.170011839264475 82.34715377622297C41.46349193958673 -18.370983456990643 78.20160595029597 -24.319910422579028 257.91096600357037 -77.61261272521301C437.62032605684476 -130.90531502784688 743.0791653240874 -370.1865061458206 836.4349164164541 -173.45781727642134C929.7906675088204 23.270871592977983 867.050448741657 626.8804137670327 706.0185712469306 866.6850938479047 "></path><path d="M818.2501282324351 -149.56375427222798C907.7160563626194 38.967905894279625 847.5900133774212 617.4270504777492 693.2677974449753 847.2398688885844C538.9455815125295 1077.0526872994199 231.78486100828013 1045.5478860844614 77.50349175669658 953.5377740997828C-76.7778774948871 861.527662115104 -29.38352084401754 584.3319767329399 -47.282774962626945 405.5913313621286C-65.18202908123641 226.85068599131728 -73.22836913402756 192.10422450171905 -8.41292801262847 95.58267631988929C56.40251310877062 -0.9388718619402425 91.60987236903372 -6.639926870629097 263.8313424200883 -57.71209991065325C436.05281247114294 -108.78427295067746 728.7842001022505 -338.09541443873565 818.2501282324351 -149.56375427222798C907.7160563626194 38.967905894279625 847.5900133774212 617.4270504777492 693.2677974449753 847.2398688885844 "></path><path d="M800.0652790132599 -125.66969126803463C885.6413841812623 54.664940195581266 828.1295169780292 607.9736871884652 680.5169626078637 827.7946439292643C532.9044082376981 1047.6156006700635 239.09850166841602 1017.4805734209726 91.52501803646652 929.4709010878016C-56.04846559548304 841.4612287546308 -10.714733146825154 576.3175296934305 -27.835758825495077 405.3482167300456C-44.956784504165 234.37890376666087 -52.65328368509569 201.14315799400174 9.344094778851286 108.81819886355584C71.34147324279826 16.49323973311016 105.01807775261511 11.04005668132072 269.75165780144994 -37.811587096093604C434.4852378502849 -86.66323087350804 714.4891738452573 -306.00432273165063 800.0652790132599 -125.66969126803463C885.6413841812623 54.664940195581266 828.1295169780292 607.9736871884652 680.5169626078637 827.7946439292643 "></path><path d="M781.8804908292409 -101.7755977462632C863.5667730350615 70.36200501446115 808.6690816137934 598.5203544167591 667.7661888059083 808.3494494875217C526.863295998023 1018.1785445582848 246.41220336370816 989.4132912750615 105.54660535139271 905.4040585933985C-35.31899266092273 821.3948259117356 7.954115585523425 568.3031131714988 -8.388681653206959 405.1051326155406C-24.731478891937343 241.90715205958236 -32.07813720100751 210.18212200386233 27.10117860548729 122.05375192480051C86.28049441198215 33.92538184573857 118.42634417135275 28.720070750848777 275.67203421796785 -17.911043763955888C432.91772426458294 -64.54215827876055 700.1942086234203 -273.91320050698755 781.8804908292409 -101.7755977462632C863.5667730350615 70.36200501446115 808.6690816137934 598.5203544167591 667.7661888059083 808.3494494875217 "></path><path d="M763.6957026452219 -77.88147370691365C841.4921618888607 86.05910035091904 789.2086462495577 589.0670521626314 655.0154150039527 788.9042855633579C520.8221837583476 988.7415189640844 253.7259050590004 961.346039646729 119.56819266631896 881.3372466165738C-14.589519726362369 801.3284535864186 26.622964317872004 560.2887271671452 11.05839551908116 404.8620790186137C-4.506173279709685 249.4354308700822 -11.502990716919385 219.22111653130116 44.8582624321233 135.2893355036232C101.21951558116604 51.35755447594522 131.83461059009045 46.40011533795496 281.59241063448576 1.989530085760066C431.3502106788811 -42.42105516643488 685.8992434015834 -241.82204776474632 763.6957026452219 -77.88147370691365C841.4921618888607 86.05910035091904 789.2086462495577 589.0670521626314 655.0154150039527 788.9042855633579 "></path><path d="M745.5109754963594 -53.98744122029842C819.4176117778161 101.75610413464267 769.7482719204784 579.6136583557693 642.2647022371535 769.4590300864595C514.7811325538287 959.3044018171497 261.0396677894488 933.2786964656623 133.58984101640146 857.2703430870147C6.140014243354187 781.2619897083671 45.29187408537683 552.2742496100576 30.505533726525528 404.6189338689527C15.71919336767428 256.96361812784755 9.072216802325045 228.26001950600562 62.61540729391561 148.5248275297115C116.15859778550617 68.7896355534175 145.2429380439844 64.08006837232665 287.5128480861599 21.89001238274153C429.78275812833544 -20.300043606843587 671.6043392149027 -209.73098657523946 745.5109754963594 -53.98744122029842C819.4176117778161 101.75610413464267 769.7482719204784 579.6136583557693 642.2647022371535 769.4590300864595 "></path><path d="M727.3261873123404 -30.09334769852694C797.3430006316153 117.45316895352244 750.2878365562428 570.1603255840637 629.5139284351981 750.0138356447173C508.7400203141535 929.8673457053715 268.35336948474094 905.2114143197516 147.61142833132772 833.2035005926118C26.869487177914493 761.195586865472 63.96072281772541 544.2598330881262 49.9526108988137 404.3758497544478C35.94449897990194 264.4918664207694 29.647363286413224 237.29898351586644 80.37249112055162 161.76038059095617C131.09761895469006 86.22177766604602 158.65120446272203 81.76008244185482 293.43322450267783 41.79055571487936C428.2152445426336 1.821028987903901 657.3093739930656 -177.63986435057637 727.3261873123404 -30.09334769852694C797.3430006316153 117.45316895352244 750.2878365562428 570.1603255840637 629.5139284351981 750.0138356447173 "></path><path d="M709.1413991283215 -6.199284694333585C775.2683894854144 133.1502032548242 730.8274011920071 560.7069622947797 616.7631546332426 730.5686106853973C502.69890807447837 900.4302590760149 275.6670711800332 877.1441016562628 161.63301564625397 809.1366275806308C47.5989601124748 741.1291535049988 82.62957155007399 536.2453860486166 69.39968807110182 404.1327351223647C56.169804592129594 272.02008419611286 50.22250977050135 246.33791700814902 98.12957494718762 174.99590313462272C146.03664012387395 103.65388926109642 172.05947088145967 99.44006599380464 299.35360091919574 61.69106852943901C426.6477309569318 23.94207106507332 643.0144087712287 -145.54877264349142 709.1413991283215 -6.199284694333585C775.2683894854144 133.1502032548242 730.8274011920071 560.7069622947797 616.7631546332426 730.5686106853973 "></path><path d="M690.9566109443026 17.694778309859714C753.1937783392136 148.84723755612595 711.3669658277712 551.2535990054959 604.0123808312871 711.123385726077C496.6577958348032 870.9931724466583 282.98077287532533 849.076788992774 175.65460296118022 785.0697545686498C68.3284330470351 721.0627201445254 101.29842028242263 528.230939009107 88.84676524338994 403.8896204902817C76.39511020435725 279.54830197145634 70.79765625458953 255.3768505004316 115.88665877382368 188.23142567828927C160.97566129305778 121.08600085614682 185.46773730019737 117.12004954575457 305.27397733571365 81.59158134399866C425.0802173712299 46.06311314224274 628.7194435493916 -113.4576809364064 690.9566109443026 17.694778309859714C753.1937783392136 148.84723755612595 711.3669658277712 551.2535990054959 604.0123808312871 711.123385726077 "></path><path d="M672.7718227602836 41.588932866787445C731.1191671930127 164.54436341016196 691.9065304635355 541.8003272689464 591.2616070293318 691.6782523194913C490.61668359512805 841.556177370036 290.29447457061747 821.0095678820196 189.67619027610647 761.0029731094032C89.05790598159541 700.9963783367866 119.9672690147712 520.2165835223318 108.29384241567806 403.64659741093305C96.62041581658491 287.0766112995343 91.37280273867765 264.41587554544856 133.6437426004597 201.46703977469008C175.91468246224167 138.5182040039316 198.876003718935 134.80012465043887 311.19435375223145 101.49218571129268C423.51270378552795 68.18424677214648 614.4244783275547 -81.36649767658707 672.7718227602836 41.588932866787445C731.1191671930127 164.54436341016196 691.9065304635355 541.8003272689464 591.2616070293318 691.6782523194913 "></path><path d="M654.5870345762648 65.48290431824643C709.0445560468119 180.24130615872934 672.4460950992998 532.346872426928 578.5108332273762 672.2329358074365C484.5755713554528 812.1189991879451 297.6081762659096 792.9421636657962 203.69777759103266 736.9360085446876C109.78737891615572 680.929853423579 138.63611774711978 512.2020449300878 127.74091958796618 403.4033912261157C116.84572142881262 294.6047375221435 111.94794922276583 273.45471748499676 151.4008264270957 214.70247076562214C190.85370363142556 155.95022404624763 212.2842701376727 152.48001664965443 317.1147301687495 121.39260697311795C421.94519019982613 90.30519729658153 600.1295131057177 -49.27549752223649 654.5870345762648 65.48290431824643C709.0445560468119 180.24130615872934 672.4460950992998 532.346872426928 578.5108332273762 672.2329358074365 "></path><path d="M636.4022463922458 89.37702835759598C686.969944900611 195.93840149518724 652.9856597350641 522.8935701728003 565.7600594254209 652.7877718832726C478.5344591157775 782.6819735937447 304.92187796120174 764.8749120374639 217.7193649059589 712.8691965678629C130.51685185071602 660.863481098262 157.30496647946836 504.18765892573447 147.18799676025435 403.1603376291889C137.07102704104028 302.13301633264336 132.52309570685395 282.4937120124356 169.1579102537317 227.93805434444494C205.79272480060945 173.38239667645428 225.69253655641035 170.16006123676055 323.0351065852673 141.29318082283385C420.3776766141243 112.4263004089072 585.8345478838806 -17.184344779995286 636.4022463922458 89.37702835759598C686.969944900611 195.93840149518724 652.9856597350641 522.8935701728003 565.7600594254209 652.7877718832726 "></path><path d="M618.217442949438 113.27115239694558C664.8953184956212 211.63549683164524 633.5252091120394 513.4402679186726 553.0092703646762 633.3426079591086C472.4933316173133 753.2449479995446 312.23556439770493 736.8076604091312 231.7409369620961 688.802384591038C151.24630952648727 640.797108772945 175.97379995302788 496.1732729213811 166.6350586737534 402.91728403226205C157.29631739447888 309.6612951431431 153.09822693215307 291.5327065398744 186.9149788215787 241.17363792326773C220.73173071100427 190.81456930666093 239.10078771635892 187.84010582386674 328.9554677429961 161.19375467254974C418.8101477696333 134.5474035212328 571.5395674032546 14.90680796224592 618.217442949438 113.27115239694558C664.8953184956212 211.63549683164524 633.5252091120394 513.4402679186726 553.0092703646762 633.3426079591086 "></path><path d="M600.032654765419 137.1651543659827C642.8207073494202 227.33247009779063 614.0647737478037 503.9868435942326 540.2584965627209 613.8973219646322C466.45221937763813 723.8078003350317 319.5492660929971 708.7402867104863 245.7625242770223 664.7354505439008C171.97578246104757 620.7306143773154 194.64264868537646 488.15876484671526 186.08213584604152 402.6741083650228C177.52162300670653 317.18945188333043 173.67337341624125 300.57157899700087 204.6720626482147 254.40909943177792C235.67075188018816 208.24661986655508 252.50905413509662 205.52002834066036 334.87584415951403 181.0942064519532C417.2426341839315 156.66838456324598 557.2446021814177 46.997838634174684 600.032654765419 137.1651543659827C642.8207073494202 227.33247009779063 614.0647737478037 503.9868435942326 540.2584965627209 613.8973219646322 "></path><path d="M581.8478665814 161.059217370176C620.7460962032194 243.02950439909233 594.6043383835679 494.5334803049485 527.5077227607654 594.4520970053118C460.41110713796286 694.370713705675 326.86296778828927 680.6729740469973 259.78411159194854 640.6685775319197C192.70525539560788 600.6641810168421 213.31149741772504 480.1443178072054 205.52921301832964 402.43099373293967C197.74692861893425 324.7176696586739 194.24851990032937 309.61051248928334 222.4291464748507 267.6446219754444C250.60977304937205 225.67873146160542 265.9173205538343 223.2000118926103 340.79622057603194 200.99471926651285C415.67512059822957 178.78942664041534 542.9496369595807 79.08893034125964 581.8478665814 161.059217370176C620.7460962032194 243.02950439909233 594.6043383835679 494.5334803049485 527.5077227607654 594.4520970053118 "></path><path d="M563.6630783973811 184.95332615073653C598.6714850570186 258.7265844767612 575.1439030193324 485.08016279203184 514.75694895881 575.0069178223587C454.3699948982877 664.9336728526857 334.1766694835814 652.6057071598758 273.8056989068748 616.6017502963059C213.43472833016818 580.597793432736 231.98034615007367 472.1299165440631 224.97629019061776 402.18792487722385C217.9722342311619 332.2459332103847 214.82366638441755 318.6494917579332 240.18623030148677 280.8801902954781C265.54879421855594 243.110888833023 279.32558697257195 240.8800412209274 346.71659699254985 220.89527785743968C414.10760701252775 200.91051449395195 528.6546717377437 111.18006782471184 563.6630783973811 184.95332615073653C598.6714850570186 258.7265844767612 575.1439030193324 485.08016279203184 514.75694895881 575.0069178223587 "></path><path d="M545.4782902133622 208.84738915492989C576.5968739108177 274.423618778063 555.6834676550966 475.6267995027479 502.0061751568545 555.5616928630385C448.32888265861254 635.4965862233291 341.4903711788736 624.538394496387 287.82728622180105 592.5348772843249C234.1642012647285 560.5313600722627 250.64919488242225 464.1154695045535 244.42336736290588 401.94481024514084C238.19753984338956 339.77415098572817 235.39881286850567 327.6884252502158 257.9433141281228 294.11571283914463C280.48781538773983 260.5430004280734 292.7338533913096 258.5600247728773 352.63697340906776 240.79579067199933C412.54009342682593 223.03155657112137 514.3597065159067 143.2711595317968 545.4782902133622 208.84738915492989C576.5968739108177 274.423618778063 555.6834676550966 475.6267995027479 502.0061751568545 555.5616928630385 "></path><path d="M527.2935020293434 232.74146741791225C554.5222627646169 290.12066833815373 536.2230322908608 466.1734514722531 489.25540135489905 536.1164831625074C442.28777041893727 606.0595148527616 348.80407287416574 596.4710970916872 301.8488735367273 568.4680195311329C254.8936741992888 540.4649419705786 269.31804361477083 456.101037723833 263.87044453519405 401.7017108718469C258.4228454556172 347.3023840198608 255.97395935259385 336.72737400128744 275.7003979547588 307.35125064160013C295.4268365569237 277.9751272819129 306.1421198100473 276.2400235836163 358.5573498255857 260.69631874534804C410.972579841124 245.15261390707985 500.0647412940698 175.36226649767082 527.2935020293434 232.74146741791225C554.5222627646169 290.12066833815373 536.2230322908608 466.1734514722531 489.25540135489905 536.1164831625074 "></path><path d="M509.1087138453245 256.6355609396837C532.4476516184161 305.81773315703356 516.7625969266252 456.72011870054723 476.5046275529436 516.6712887207652C436.2466581792621 576.6224587409832 356.11777456945794 568.4038149457765 315.8704608516535 544.4011770367299C275.6231471338491 520.3985391276834 287.9868923471194 448.0866212019015 283.3175217074822 401.458626757342C278.64815106784494 354.8306323127825 276.549105836682 345.76633801114815 293.4574817813948 320.5868037028448C310.3658577261076 295.4072693945414 319.55038622878493 293.9200376531443 364.47772624210353 280.5968620774858C409.4050662554221 267.27368650182734 485.76977607223284 207.4533887223339 509.1087138453245 256.6355609396837C532.4476516184161 305.81773315703356 516.7625969266252 456.72011870054723 476.5046275529436 516.6712887207652 "></path><path d="M490.9239256613055 280.5296239438771C510.37304047221517 321.51476745833526 497.3021615623894 447.2667554112634 463.7538537509881 497.22606376144495C430.2055459395869 547.1853721116265 363.4314762647501 540.3365022822877 329.89204816657974 520.3343040247489C296.3526200684094 500.3321057672101 306.655741079468 440.0721741623918 302.7645988797703 401.2155121252589C298.8734566800726 362.358850088126 297.12425232077015 354.80527150343073 311.21456560803085 333.82232624651124C325.3048788952915 312.83938098959175 332.9586526475226 311.6000212050942 370.39810265862144 300.49737489204546C407.83755266972025 289.39472857899676 471.4748108503959 239.5444804294189 490.9239256613055 280.5296239438771C510.37304047221517 321.51476745833526 497.3021615623894 447.2667554112634 463.7538537509881 497.22606376144495 "></path><path d="M472.7391374772866 304.4237174656485C488.29842932601434 337.2118322772151 477.84172619815376 437.81342263955753 451.0030799490327 477.7808693197028C424.16443369991174 517.7483159998482 370.74517796004227 512.269220136377 343.913635481506 496.26746153034605C317.0820930029697 480.26570292431495 325.32458981181657 432.05775764046035 322.2116760520584 400.972428010754C319.09876229230025 369.8870983810477 317.69939880485833 363.8442355132915 328.97164943466686 347.0578793077559C340.2439000644754 330.2715231022203 346.36691906626027 329.28003527462226 376.31847907513935 320.3979182241833C406.27003908401844 311.51580117374425 457.17984562855884 271.635602654082 472.7391374772866 304.4237174656485C488.29842932601434 337.2118322772151 477.84172619815376 437.81342263955753 451.0030799490327 477.7808693197028 "></path><path d="M454.55436455205677 328.31778046984186C466.2238334386026 352.9088665785168 458.3813060927071 428.3600593502736 438.2523214058663 458.3356443603826C418.1233367190256 488.3112293704917 378.05889491412347 484.20190747288825 357.9352380552213 472.20058851836495C337.8115811963191 460.1992695638417 343.99345380295426 424.04331060095075 341.6587684831356 400.729313378671C339.32408316331697 377.41531615639127 338.2745605477355 372.8831690055741 346.7287485200919 360.2934018514224C355.18293649244833 347.7036346972707 359.775200743787 346.96001882657214 382.2388707504463 340.29843103874293C404.70254075710557 333.63684325091367 442.88489566551095 303.72669436116695 454.55436455205677 328.31778046984186C466.2238334386026 352.9088665785168 458.3813060927071 428.3600593502736 438.2523214058663 458.3356443603826 "></path><path d="M436.3695763680378 352.2118587328243C444.1492222924017 368.60591613860754 438.9208707284714 418.90671131977876 425.5015476039109 438.8904346598514C412.0822244793504 458.8741579999241 385.37259660941567 456.1346100681885 371.9568253701475 448.133730765173C358.5410541308794 440.1328514621575 362.66230253530284 416.02887882023015 361.10584565542376 400.486214005377C359.5493887755447 384.94354919052387 358.8497070318237 381.9221177566458 364.48583234672793 373.52893965387796C370.1219576616322 365.13576155111014 373.18346716252466 364.64001763731113 388.1592471669642 360.19895911209164C403.13502717140375 355.75790058687215 428.58993044367395 335.81780132704097 436.3695763680378 352.2118587328243C444.1492222924017 368.60591613860754 438.9208707284714 418.90671131977876 425.5015476039109 438.8904346598514 "></path><path d="M418.1847881840189 376.1059217370176C422.0746111462008 384.30295043990924 419.4604353642357 409.45334803049485 412.75077380195546 419.44520970053117C406.0411122396752 429.43707137056754 392.6862983047078 428.06729740469973 385.97841268507375 424.066857753192C379.2705270654397 420.06641810168423 381.3311512676514 408.01443178072054 380.5529228277119 400.243099373294C379.77469438777234 392.4717669658674 379.4248535159118 390.96105124892836 382.242916173364 386.76446219754445C385.0609788308161 382.56787314616054 386.59173358126236 382.320001189261 394.0796235834821 380.0994719266513C401.5675135857019 377.8789426640415 414.29496522183695 367.908893034126 418.1847881840189 376.1059217370176C422.0746111462008 384.30295043990924 419.4604353642357 409.45334803049485 412.75077380195546 419.44520970053117 "></path></g></svg>