<svg xmlns="http://www.w3.org/2000/svg" version="1.1" xmlns:xlink="http://www.w3.org/1999/xlink" viewBox="0 0 700 700" style="overflow: hidden; display: block;" width="700" height="700"><defs><linearGradient id="two-137" x1="350" y1="-350" x2="350" y2="350" spreadMethod="pad" gradientUnits="userSpaceOnUse"><stop offset="0%" stop-color="hsl(1.4, 100%, 67%)" stop-opacity="1"></stop><stop offset="100%" stop-color="hsl(167, 52%, 78%)" stop-opacity="1"></stop></linearGradient></defs><g id="two-0" transform="matrix(1 0 0 1 0 0)" opacity="1"><path transform="matrix(1 0 0 1 350 350)" id="two-136" d="M 315.498173 34.312494 C 320.341584 44.786145 305.016356 55.370523 301.542349 66.37449 C 298.200149 76.960957 302.67844 91.492353 294.823926 99.337746 C 281.552081 112.594179 257.869516 110.406772 239.11246 110.625204 C 212.782523 110.931824 172.783693 73.283248 160.56055 96.606077 C 138.139427 139.387547 288.558616 159.046707 263.699122 200.458861 C 250.158438 223.01559 206.578306 159.509858 187.359735 177.476568 C 172.7665 191.119228 217.858143 225.969897 200.872823 236.485769 C 167.708425 257.018357 147.22428 171.424921 109.501458 161.502567 C 102.42083 159.640127 91.784479 159.277729 87.645543 165.317031 C 66.881704 195.614452 136.975995 250.260433 109.362771 274.479858 C 99.773412 282.890639 85.507356 262.519955 72.760402 262.059287 C 63.021398 261.707324 53.104918 273.426586 44.183186 269.505516 C 22.949086 260.173202 34.289772 204.778577 11.245709 207.414914 C -24.796186 211.538259 9.482318 288.865829 -17.005769 313.65295 C -25.736648 321.823165 -40.634476 321.446252 -52.563613 320.62385 C -64.149646 319.825101 -78.030687 317.771475 -85.842926 309.178275 C -99.18578 294.501587 -98.442164 270.520543 -99.903634 250.739213 C -101.730622 226.010523 -72.694673 189.757612 -93.253323 175.894425 C -105.489843 167.643049 -119.027585 200.806639 -133.069229 196.262429 C -141.788858 193.44055 -136.887633 174.058343 -145.695813 171.52637 C -181.167373 161.329824 -208.07151 244.183218 -241.681416 228.932796 C -253.813752 223.427775 -251.922099 202.188201 -248.903784 189.211737 C -242.291905 160.785671 -207.308912 145.144911 -196.306155 118.113494 C -192.646958 109.12363 -185.408734 95.795304 -192.313139 88.973532 C -222.895952 58.756733 -305.597741 148.288301 -321.165264 108.213176 C -333.084466 77.52984 -264.181043 72.996071 -238.436477 52.483837 C -227.095047 43.447442 -202.59512 36.446107 -206.365168 22.443564 C -214.931966 -9.37485 -290.753341 30.317254 -303.663243 0 C -308.334485 -10.969812 -294.750303 -23.97926 -285.119891 -31.008657 C -265.953472 -44.998543 -227.090519 -26.87252 -215.094127 -47.345798 C -210.258948 -55.59761 -218.277213 -66.954938 -223.146347 -75.186759 C -235.595707 -96.233805 -281.580459 -103.798497 -275.614668 -127.512924 C -272.041564 -141.71626 -246.791622 -135.049811 -233.100827 -140.252114 C -222.841099 -144.150663 -206.505883 -143.891421 -202.941155 -154.271855 C -194.042673 -180.184099 -256.63535 -205.750425 -240.842843 -228.138459 C -230.665068 -242.566844 -205.023173 -224.997951 -187.802369 -221.098041 C -171.370099 -217.376706 -152.062326 -194.432358 -139.23437 -205.355332 C -118.681233 -222.856279 -176.596965 -275.687422 -151.732127 -286.197152 C -111.421018 -303.235627 -111.383277 -199.111832 -71.851995 -180.334908 C -65.421496 -177.280492 -55.65927 -176.464185 -50.294302 -181.143705 C -34.974916 -194.50583 -59.33815 -236.780242 -39.643749 -241.816167 C -25.071319 -245.542387 -22.800303 -215.76735 -11.180715 -206.216142 C -4.931235 -201.079119 3.096207 -191.800244 10.567334 -194.903026 C 56.212807 -213.859729 5.956643 -337.756019 55.381963 -337.815033 C 77.768796 -337.841762 69.832813 -294.699988 75.834936 -273.132755 C 80.529728 -256.26311 86.112888 -238.925238 88.272882 -221.548229 C 90.46934 -203.877871 72.297847 -174.152053 88.852031 -167.592711 C 126.167583 -152.806994 134.886595 -267.57161 173.107317 -255.314193 C 187.072709 -250.83548 169.048173 -221.613692 179.50994 -211.33544 C 188.62742 -202.377893 212.689136 -218.09204 217.930374 -206.434617 C 231.810948 -175.561805 138.709966 -147.939276 160.10776 -121.710756 C 191.511736 -83.217075 269.157186 -219.624808 298.958111 -179.877128 C 315.893194 -157.289567 264.207557 -134.19321 245.111408 -113.400614 C 229.8357 -96.767855 187.727786 -87.064563 195.783641 -65.96719 C 206.289635 -38.453179 271.193039 -88.756597 284.972078 -62.727098 C 291.18182 -50.996495 273.530833 -37.451278 263.581435 -28.666209 C 246.812792 -13.859918 200.558927 -22.313037 202.153305 -0.000001 C 204.938675 38.980758 299.095027 -1.158546 315.498173 34.312494 Z " fill="url(#two-137)" stroke="undefined" stroke-width="1" stroke-opacity="1" fill-opacity="1" visibility="visible" stroke-linecap="butt" stroke-linejoin="miter" stroke-miterlimit="4"></path></g></svg>