<svg xmlns="http://www.w3.org/2000/svg" version="1.1" xmlns:xlink="http://www.w3.org/1999/xlink" xmlns:svgjs="http://svgjs.dev/svgjs" viewBox="0 0 800 800"><defs><filter id="uuunion-blur" x="-100%" y="-100%" width="400%" height="400%" color-interpolation-filters="sRGB">
        <feGaussianBlur in="SourceGraphic" stdDeviation="0 0" result="blur"></feGaussianBlur>
        <feDropShadow stdDeviation="12.307692307692308" in="blur" dx="10" dy="10" flood-color="hsl(180, 69%, 40%)" flood-opacity="0.25" x="0%" y="0%" width="100%" height="100%"></feDropShadow>
      </filter><filter id="uuunion-blur2" x="-100%" y="-100%" width="400%" height="400%" color-interpolation-filters="sRGB">
        <feGaussianBlur in="SourceGraphic" stdDeviation="0 0" result="blur"></feGaussianBlur>
        <feDropShadow stdDeviation="12.307692307692308" in="blur" dx="-10" dy="-10" flood-color="hsl(180, 69%, 40%)" flood-opacity="0.25" x="0%" y="0%" width="100%" height="100%"></feDropShadow>
      </filter><linearGradient gradientTransform="rotate(309, 0.5, 0.5)" x1="50%" y1="0%" x2="50%" y2="100%" id="uuunion-grad"><stop stop-color="hsl(180, 69%, 60%)" offset="10%"></stop><stop stop-color="hsl(180, 69%, 40%)" offset="90%"></stop></linearGradient><linearGradient gradientTransform="rotate(135, 0.5, 0.5)" x1="50%" y1="0%" x2="50%" y2="100%" id="uuunion-grad2"><stop stop-color="hsl(180, 69%, 60%)" offset="25%"></stop><stop stop-color="hsl(180, 69%, 40%)" offset="100%"></stop></linearGradient><linearGradient gradientTransform="rotate(333, 0.5, 0.5)" x1="50%" y1="0%" x2="50%" y2="100%" id="uuunion-grad3"><stop stop-color="hsl(180, 69%, 60%)" offset="0%"></stop><stop stop-color="hsl(180, 69%, 40%)" offset="75%"></stop></linearGradient></defs><path d="M-79.05 -80.54Q-64.39 -77.87 -49.73 -75.39 -35.06 -73.35 -20.4 -71.92 -5.74 -71.24 8.91 -71.38 23.57 -72.32 38.23 -73.97 52.89 -76.18 67.55 -78.75 82.21 -81.43 96.88 -83.98 111.54 -86.16 126.2 -87.77 140.86 -88.65 155.52 -88.73 170.18 -87.99 184.84 -86.52 199.5 -84.43 214.16 -81.94 228.83 -79.26 243.49 -76.65 258.15 -74.35 272.81 -72.58 287.47 -71.5 302.13 -71.2 316.79 -71.73 331.45 -73.02 346.12 -74.96 360.78 -77.37 375.44 -80.02 390.1 -82.67 404.76 -85.08 419.42 -87 434.08 -88.28 448.74 -88.79 463.4 -88.48 478.07 -87.38 492.73 -85.59 507.39 -83.29 522.05 -80.67 536.71 -78 551.37 -75.51 566.03 -73.44 580.69 -71.97 595.36 -71.26 610.02 -71.35 624.68 -72.25 639.34 -73.87 654 -76.06 668.66 -78.61 683.32 -81.3 697.98 -83.86 712.64 -86.06 727.31 -87.7 741.97 -88.62 756.63 -88.74 771.29 -88.05 785.95 -86.61 800.61 -84.55 815.27 -82.07 829.93 -79.4 844.59 -76.78 859.26 -74.46 856.13 -59.32 856.67 -44.18 860.81 -29.03 867.89 -13.89 876.83 1.24 886.26 16.38 894.73 31.52 900.93 46.66 903.91 61.81 903.21 76.95 898.94 92.09 891.76 107.23 882.77 122.37 873.35 137.51 864.95 152.65 858.87 167.8 856.03 182.94 856.88 198.08 861.29 213.22 868.57 228.36 877.61 243.5 887.02 258.65 895.34 273.79 901.31 288.93 904 304.07 902.99 319.21 898.45 334.35 891.07 349.49 881.99 364.64 872.6 379.78 864.34 394.92 858.5 410.06 855.96 425.2 857.12 440.34 861.8 455.49 869.27 470.63 878.4 485.77 887.77 500.91 895.94 516.05 901.66 531.19 904.05 546.33 902.74 561.48 897.93 576.62 890.36 591.76 881.2 606.9 871.85 622.04 863.76 637.18 858.16 652.33 855.92 667.47 857.38 682.61 862.32 697.75 869.98 712.89 879.18 728.03 888.51 743.18 896.52 758.32 902 773.46 904.09 788.6 902.47 803.74 897.4 818.88 889.65 834.02 880.42 849.17 871.12 864.31 863.18 879.45 857.84 894.59 843.2 888.48 828.56 881.58 813.92 874.53 799.28 867.99 784.65 862.56 770.01 858.76 755.37 856.93 740.73 857.25 726.09 859.68 711.46 864 696.82 869.81 682.18 876.56 667.54 883.64 652.9 890.37 638.27 896.14 623.63 900.41 608.99 902.78 594.35 903.04 579.71 901.15 565.08 897.29 550.44 891.82 535.8 885.26 521.16 878.21 506.52 871.32 491.89 865.24 477.25 860.53 462.61 857.63 447.97 856.81 433.33 858.15 418.7 861.52 404.06 866.6 389.42 872.93 374.78 879.92 360.15 886.92 345.51 893.27 330.87 898.39 316.23 901.79 301.59 903.17 286.96 902.4 272.32 899.54 257.68 894.87 243.04 888.81 228.4 881.93 213.77 874.87 199.13 868.29 184.49 862.8 169.85 858.91 155.21 856.97 140.58 857.18 125.94 859.51 111.3 863.74 96.66 869.49 82.02 876.21 67.39 883.28 52.75 890.05 38.11 895.88 23.47 900.24 8.83 902.71 -5.79 903.07 -20.43 901.29 -35.07 897.52 -49.71 892.13 -64.35 885.61 -78.98 878.56 -79.23 863.57 -79.59 848.59 -80.01 833.6 -80.44 818.62 -80.79 803.63 -81.02 788.64 -81.09 773.66 -81 758.67 -80.75 743.69 -80.38 728.7 -79.96 713.71 -79.54 698.73 -79.19 683.74 -78.96 668.76 -78.9 653.77 -79 638.78 -79.25 623.8 -79.62 608.81 -80.05 593.83 -80.47 578.84 -80.81 563.85 -81.03 548.87 -81.09 533.88 -80.98 518.89 -80.72 503.91 -80.35 488.92 -79.92 473.94 -79.51 458.95 -79.16 443.96 -78.95 428.98 -78.9 413.99 -79.01 399.01 -79.28 384.02 -79.66 369.03 -80.09 354.05 -80.5 339.06 -80.84 324.08 -81.04 309.09 -81.09 294.1 -80.97 279.12 -80.7 264.13 -80.32 249.15 -79.89 234.16 -79.47 219.17 -79.14 204.19 -78.94 189.2 -78.9 174.21 -79.03 159.23 -79.31 144.24 -79.69 129.26 -80.12 114.27 -80.53 99.28 -80.86 84.3 -81.05 69.31 -81.09 54.33 -80.95 39.34 -80.67 24.35 -80.28 9.37 -79.85 -5.61 -79.44 -20.59 -79.12 -35.58 -78.93 -50.57 -78.91 -65.55 -79.05 -80.54" fill="url(#uuunion-grad)"></path><path d="M-79.05 -80.54Q-78.91 -65.55 -78.93 -50.57 -79.12 -35.58 -79.44 -20.59 -79.85 -5.61 -80.28 9.37 -80.67 24.35 -80.95 39.34 -81.09 54.33 -81.05 69.31 -80.86 84.3 -80.53 99.28 -80.12 114.27 -79.69 129.26 -79.31 144.24 -79.03 159.23 -78.9 174.21 -78.94 189.2 -79.14 204.19 -79.47 219.17 -79.89 234.16 -80.32 249.15 -80.7 264.13 -80.97 279.12 -81.09 294.1 -81.04 309.09 -80.84 324.08 -80.5 339.06 -80.09 354.05 -79.66 369.03 -79.28 384.02 -79.01 399.01 -69.25 402.26 -59.48 405.43 -49.72 408.36 -39.95 410.95 -30.18 413.09 -20.42 414.68 -2.11 415.9 1.05 415.98 13.34 408.96 25.73 400.98 38.23 392.15 50.85 382.65 63.59 372.71 76.45 362.55 89.43 352.43 102.52 342.61 115.68 333.3 128.91 324.7 142.17 316.95 155.42 310.14 168.65 304.28 181.8 299.34 194.85 295.23 207.77 291.8 220.52 288.86 233.08 286.19 245.43 283.55 257.56 280.72 269.46 277.48 281.13 273.64 292.58 269.05 303.83 263.62 314.91 257.3 325.86 250.12 336.7 242.14 347.49 233.49 358.28 224.33 369.12 214.85 380.06 205.26 391.17 195.79 402.48 186.63 414.04 177.97 425.91 169.95 438.1 162.68 450.65 156.22 463.57 150.56 476.87 145.66 490.54 141.41 504.55 137.69 518.88 134.31 533.5 131.09 548.34 127.84 563.35 124.35 578.45 120.47 593.59 116.03 608.67 110.94 623.63 105.13 638.39 98.59 652.86 91.34 666.99 83.46 680.71 75.06 693.98 66.3 706.75 57.34 719 48.35 730.71 39.52 741.9 31 752.57 22.94 762.77 15.44 772.54 8.57 781.95 2.37 791.07 -3.18 800 -8.14 790.22 -25.43 782.48 -42.71 778.39 -60 778.8 -77.29 783.63 -94.57 791.87 -111.86 801.8 -129.15 811.36 -146.43 796.25 -147.51 781.14 -147.89 766.03 -147.56 750.92 -146.52 735.81 -144.89 720.71 -142.81 705.6 -140.47 690.49 -138.08 675.38 -135.88 660.27 -134.05 645.16 -132.76 630.06 -132.14 614.95 -132.24 599.84 -133.06 584.73 -134.51 569.62 -136.46 554.51 -138.74 539.41 -141.13 524.3 -143.42 509.19 -145.4 494.08 -146.88 478.97 -147.72 463.86 -147.86 448.76 -147.27 433.65 -146.02 418.54 -144.21 403.43 -142.02 388.32 -139.64 373.21 -137.29 358.11 -135.19 343 -133.53 327.89 -132.47 312.78 -132.1 297.67 -132.45 282.56 -133.49 267.46 -135.14 252.35 -137.22 237.24 -139.57 222.13 -141.95 207.02 -144.15 191.91 -145.97 176.81 -147.25 161.7 -147.85 146.59 -147.74 131.48 -146.91 116.37 -145.45 101.27 -143.49 86.16 -141.2 71.05 -138.81 55.94 -136.53 40.83 -134.56 25.72 -133.09 10.62 -132.26 -4.48 -132.14 -19.59 -132.73 -34.7 -134 -49.81 -135.82 -64.92 -138.02 -80.02 -140.4 -95.13 -142.74 -110.24 -144.84 -125.35 -146.48 -134.6 -134.2 -116.49 -116.08 -106.96 -107.47 -97.55 -98.64 -88.25 -89.65 -79.05 -80.54" fill="url(#uuunion-grad2)" filter="url(#uuunion-blur)"></path><path d="M780.37 386.96Q790.14 389.11 799.9 391.71 809.67 394.66 819.44 397.83 829.2 401.09 838.97 404.3 848.73 407.33 858.5 410.06 855.96 425.2 857.12 440.34 861.8 455.49 869.27 470.63 878.4 485.77 887.77 500.91 895.94 516.05 901.66 531.19 904.05 546.33 902.74 561.48 897.93 576.62 890.36 591.76 881.2 606.9 871.85 622.04 863.76 637.18 858.16 652.33 855.92 667.47 857.38 682.61 862.32 697.75 869.98 712.89 879.18 728.03 888.51 743.18 896.52 758.32 902 773.46 904.09 788.6 902.47 803.74 897.4 818.88 889.65 834.02 880.42 849.17 871.12 864.31 863.18 879.45 857.84 894.59 844.4 889.02 830.97 882.74 817.54 876.24 804.1 870.04 790.67 864.62 777.24 860.41 763.8 857.73 750.37 856.8 736.94 857.68 723.5 860.32 710.07 864.49 696.64 869.89 683.2 876.07 669.77 882.57 656.34 888.86 642.9 894.45 629.47 898.92 616.03 901.9 602.6 903.16 589.17 902.61 575.73 900.28 562.3 896.36 548.87 891.16 535.43 885.09 522 878.61 508.57 872.24 495.13 866.49 481.7 861.79 468.27 858.51 454.83 856.93 441.4 857.15 427.97 859.16 414.53 862.81 401.1 867.8 387.67 873.75 374.23 880.19 360.8 886.61 347.37 892.52 333.93 897.44 320.5 901 307.07 902.91 293.63 903.02 280.2 901.33 266.77 897.96 253.33 893.19 239.9 887.38 226.47 880.99 213.03 874.53 199.6 868.49 186.17 863.36 172.73 859.53 159.3 857.3 145.87 856.85 132.43 858.22 119 861.3 105.57 865.84 92.13 871.49 78.7 877.81 65.27 884.3 51.83 890.45 38.4 895.78 24.97 899.88 4.88 897.73 -1.58 882.89 -1.35 872.74 -1.11 862.59 -0.85 852.44 -0.6 842.29 -0.04 827.07 0.8 822 13.68 814.94 26.58 806.53 39.46 796.91 52.31 786.31 65.09 775.01 77.78 763.36 90.36 751.69 102.81 740.37 115.11 729.71 127.26 720 139.26 711.45 151.12 704.19 162.84 698.28 174.44 693.69 185.95 690.3 197.4 687.91 208.82 686.26 220.25 685.05 231.73 683.96 243.3 682.64 255 680.78 266.88 678.11 278.95 674.4 291.25 669.49 303.81 663.31 316.64 655.88 329.75 647.26 343.13 637.64 356.78 627.24 370.67 616.32 384.77 605.21 399.06 594.21 413.48 583.63 427.97 573.75 442.49 564.78 456.98 556.91 471.36 550.22 485.59 544.72 499.6 540.36 513.33 537.01 526.73 534.47 539.78 532.48 552.42 530.77 564.64 529.05 576.44 527.02 587.8 524.41 598.76 520.99 609.34 516.6 619.57 511.11 629.51 504.5 639.23 496.8 648.8 488.1 658.29 478.6 667.79 468.49 677.38 458.04 687.16 447.52 697.2 437.2 707.59 427.36 718.39 418.2 729.67 409.92 741.49 402.64 753.86 396.4 773.6 389.08 780.37 386.96" fill="url(#uuunion-grad3)" filter="url(#uuunion-blur2)"></path></svg>