<svg xmlns="http://www.w3.org/2000/svg" version="1.1" xmlns:xlink="http://www.w3.org/1999/xlink" xmlns:svgjs="http://svgjs.dev/svgjs" viewBox="0 0 800 800" opacity="1"><g stroke-width="11" stroke="hsl(32, 100%, 51%)" fill="none" stroke-linecap="round" transform="matrix(1,0,0,1,-5,355.9336585998535)"><path d="M10,10C19.821428571428573,17.291666666666664,35.41666666666667,58.54166666666667,57.142857142857146,45C78.86904761904762,31.458333333333332,90.47619047619048,-50,114.28571428571429,-55C138.0952380952381,-60,147.61904761904765,19.333333333333332,171.42857142857144,21C195.23809523809524,22.666666666666668,204.76190476190476,-58.04166666666667,228.57142857142858,-47C252.3809523809524,-35.95833333333333,261.9047619047619,74.83333333333333,285.7142857142857,74C309.5238095238095,73.16666666666667,319.0476190476191,-51.416666666666664,342.8571428571429,-51C366.6666666666667,-50.583333333333336,376.1904761904762,67.25,400,76C423.8095238095238,84.75,433.33333333333337,-10.458333333333334,457.14285714285717,-9C480.95238095238096,-7.541666666666666,490.47619047619054,84.25,514.2857142857143,83C538.0952380952382,81.75,547.6190476190477,-9.375,571.4285714285714,-15C595.2380952380952,-20.625,604.7619047619047,62.041666666666664,628.5714285714286,56C652.3809523809524,49.958333333333336,661.9047619047619,-49.625,685.7142857142858,-44C709.5238095238096,-38.375,719.047619047619,76.54166666666667,742.8571428571429,83C766.6666666666667,89.45833333333333,788.0952380952381,7,800,-13"></path><path d="M10,10C19.821428571428573,17.291666666666664,35.41666666666667,58.54166666666667,57.142857142857146,45C78.86904761904762,31.458333333333332,90.47619047619048,-50,114.28571428571429,-55C138.0952380952381,-60,147.61904761904765,19.333333333333332,171.42857142857144,21C195.23809523809524,22.666666666666668,204.76190476190476,-58.04166666666667,228.57142857142858,-47C252.3809523809524,-35.95833333333333,261.9047619047619,74.83333333333333,285.7142857142857,74C309.5238095238095,73.16666666666667,319.0476190476191,-51.416666666666664,342.8571428571429,-51C366.6666666666667,-50.583333333333336,376.1904761904762,67.25,400,76C423.8095238095238,84.75,433.33333333333337,-10.458333333333334,457.14285714285717,-9C480.95238095238096,-7.541666666666666,490.47619047619054,84.25,514.2857142857143,83C538.0952380952382,81.75,547.6190476190477,-9.375,571.4285714285714,-15C595.2380952380952,-20.625,604.7619047619047,62.041666666666664,628.5714285714286,56C652.3809523809524,49.958333333333336,661.9047619047619,-49.625,685.7142857142858,-44C709.5238095238096,-38.375,719.047619047619,76.54166666666667,742.8571428571429,83C766.6666666666667,89.45833333333333,788.0952380952381,7,800,-13" transform="matrix(1,0,0,1,0,60)"></path><path d="M10,10C19.821428571428573,17.291666666666664,35.41666666666667,58.54166666666667,57.142857142857146,45C78.86904761904762,31.458333333333332,90.47619047619048,-50,114.28571428571429,-55C138.0952380952381,-60,147.61904761904765,19.333333333333332,171.42857142857144,21C195.23809523809524,22.666666666666668,204.76190476190476,-58.04166666666667,228.57142857142858,-47C252.3809523809524,-35.95833333333333,261.9047619047619,74.83333333333333,285.7142857142857,74C309.5238095238095,73.16666666666667,319.0476190476191,-51.416666666666664,342.8571428571429,-51C366.6666666666667,-50.583333333333336,376.1904761904762,67.25,400,76C423.8095238095238,84.75,433.33333333333337,-10.458333333333334,457.14285714285717,-9C480.95238095238096,-7.541666666666666,490.47619047619054,84.25,514.2857142857143,83C538.0952380952382,81.75,547.6190476190477,-9.375,571.4285714285714,-15C595.2380952380952,-20.625,604.7619047619047,62.041666666666664,628.5714285714286,56C652.3809523809524,49.958333333333336,661.9047619047619,-49.625,685.7142857142858,-44C709.5238095238096,-38.375,719.047619047619,76.54166666666667,742.8571428571429,83C766.6666666666667,89.45833333333333,788.0952380952381,7,800,-13" transform="matrix(1,0,0,1,0,50)"></path><path d="M10,10C19.821428571428573,17.291666666666664,35.41666666666667,58.54166666666667,57.142857142857146,45C78.86904761904762,31.458333333333332,90.47619047619048,-50,114.28571428571429,-55C138.0952380952381,-60,147.61904761904765,19.333333333333332,171.42857142857144,21C195.23809523809524,22.666666666666668,204.76190476190476,-58.04166666666667,228.57142857142858,-47C252.3809523809524,-35.95833333333333,261.9047619047619,74.83333333333333,285.7142857142857,74C309.5238095238095,73.16666666666667,319.0476190476191,-51.416666666666664,342.8571428571429,-51C366.6666666666667,-50.583333333333336,376.1904761904762,67.25,400,76C423.8095238095238,84.75,433.33333333333337,-10.458333333333334,457.14285714285717,-9C480.95238095238096,-7.541666666666666,490.47619047619054,84.25,514.2857142857143,83C538.0952380952382,81.75,547.6190476190477,-9.375,571.4285714285714,-15C595.2380952380952,-20.625,604.7619047619047,62.041666666666664,628.5714285714286,56C652.3809523809524,49.958333333333336,661.9047619047619,-49.625,685.7142857142858,-44C709.5238095238096,-38.375,719.047619047619,76.54166666666667,742.8571428571429,83C766.6666666666667,89.45833333333333,788.0952380952381,7,800,-13" transform="matrix(1,0,0,1,0,40)"></path><path d="M10,10C19.821428571428573,17.291666666666664,35.41666666666667,58.54166666666667,57.142857142857146,45C78.86904761904762,31.458333333333332,90.47619047619048,-50,114.28571428571429,-55C138.0952380952381,-60,147.61904761904765,19.333333333333332,171.42857142857144,21C195.23809523809524,22.666666666666668,204.76190476190476,-58.04166666666667,228.57142857142858,-47C252.3809523809524,-35.95833333333333,261.9047619047619,74.83333333333333,285.7142857142857,74C309.5238095238095,73.16666666666667,319.0476190476191,-51.416666666666664,342.8571428571429,-51C366.6666666666667,-50.583333333333336,376.1904761904762,67.25,400,76C423.8095238095238,84.75,433.33333333333337,-10.458333333333334,457.14285714285717,-9C480.95238095238096,-7.541666666666666,490.47619047619054,84.25,514.2857142857143,83C538.0952380952382,81.75,547.6190476190477,-9.375,571.4285714285714,-15C595.2380952380952,-20.625,604.7619047619047,62.041666666666664,628.5714285714286,56C652.3809523809524,49.958333333333336,661.9047619047619,-49.625,685.7142857142858,-44C709.5238095238096,-38.375,719.047619047619,76.54166666666667,742.8571428571429,83C766.6666666666667,89.45833333333333,788.0952380952381,7,800,-13" transform="matrix(1,0,0,1,0,30)"></path><path d="M10,10C19.821428571428573,17.291666666666664,35.41666666666667,58.54166666666667,57.142857142857146,45C78.86904761904762,31.458333333333332,90.47619047619048,-50,114.28571428571429,-55C138.0952380952381,-60,147.61904761904765,19.333333333333332,171.42857142857144,21C195.23809523809524,22.666666666666668,204.76190476190476,-58.04166666666667,228.57142857142858,-47C252.3809523809524,-35.95833333333333,261.9047619047619,74.83333333333333,285.7142857142857,74C309.5238095238095,73.16666666666667,319.0476190476191,-51.416666666666664,342.8571428571429,-51C366.6666666666667,-50.583333333333336,376.1904761904762,67.25,400,76C423.8095238095238,84.75,433.33333333333337,-10.458333333333334,457.14285714285717,-9C480.95238095238096,-7.541666666666666,490.47619047619054,84.25,514.2857142857143,83C538.0952380952382,81.75,547.6190476190477,-9.375,571.4285714285714,-15C595.2380952380952,-20.625,604.7619047619047,62.041666666666664,628.5714285714286,56C652.3809523809524,49.958333333333336,661.9047619047619,-49.625,685.7142857142858,-44C709.5238095238096,-38.375,719.047619047619,76.54166666666667,742.8571428571429,83C766.6666666666667,89.45833333333333,788.0952380952381,7,800,-13" transform="matrix(1,0,0,1,0,20)"></path><path d="M10,10C19.821428571428573,17.291666666666664,35.41666666666667,58.54166666666667,57.142857142857146,45C78.86904761904762,31.458333333333332,90.47619047619048,-50,114.28571428571429,-55C138.0952380952381,-60,147.61904761904765,19.333333333333332,171.42857142857144,21C195.23809523809524,22.666666666666668,204.76190476190476,-58.04166666666667,228.57142857142858,-47C252.3809523809524,-35.95833333333333,261.9047619047619,74.83333333333333,285.7142857142857,74C309.5238095238095,73.16666666666667,319.0476190476191,-51.416666666666664,342.8571428571429,-51C366.6666666666667,-50.583333333333336,376.1904761904762,67.25,400,76C423.8095238095238,84.75,433.33333333333337,-10.458333333333334,457.14285714285717,-9C480.95238095238096,-7.541666666666666,490.47619047619054,84.25,514.2857142857143,83C538.0952380952382,81.75,547.6190476190477,-9.375,571.4285714285714,-15C595.2380952380952,-20.625,604.7619047619047,62.041666666666664,628.5714285714286,56C652.3809523809524,49.958333333333336,661.9047619047619,-49.625,685.7142857142858,-44C709.5238095238096,-38.375,719.047619047619,76.54166666666667,742.8571428571429,83C766.6666666666667,89.45833333333333,788.0952380952381,7,800,-13" transform="matrix(1,0,0,1,0,10)"></path></g></svg>